<svg width="96" height="96" viewBox="0 0 96 96" fill="none" xmlns="http://www.w3.org/2000/svg">
<path d="M68.16 78.72H27.84C22.008 78.72 17.28 73.992 17.28 68.16V27.84C17.28 22.008 22.008 17.28 27.84 17.28H68.16C73.992 17.28 78.72 22.008 78.72 27.84V68.16C78.72 73.992 73.992 78.72 68.16 78.72Z" fill="#6693C1"/>
<path d="M67.1357 47.0774C67.1357 43.8893 65.8829 40.9968 63.8534 38.8474C64.2336 36.7325 64.1904 33.7584 63.337 31.2C59.041 31.2 55.5475 34.5091 54.983 35.04H42.6912C42.1258 34.5101 38.833 31.2 34.537 31.2C33.769 33.505 33.4934 36.2237 33.7248 38.2032C31.3075 40.3978 29.7811 43.5552 29.7811 47.0784C29.7811 53.7101 35.1562 59.039 41.7878 59.039H44.137C42.2141 59.9194 40.6474 61.6848 40.297 63.839C38.377 63.839 35.6275 63.6643 34.3632 61.7674C32.0016 58.225 30.9168 58.225 29.737 58.225C28.5562 58.225 28.4602 59.4058 29.641 60.5866C30.8218 61.7674 30.8218 61.7674 32.0026 64.129C32.9741 66.0749 35.497 67.68 40.297 67.68V73.44H56.617V64.9488C56.617 62.3395 55.0032 60.0605 52.777 59.04H55.128C61.7606 59.04 67.1357 53.7091 67.1357 47.0774Z" fill="#EEECD9"/>
<path d="M56.617 73.92C56.352 73.92 56.137 73.705 56.137 73.44V64.9488C56.137 62.615 54.7392 60.4675 52.5773 59.4758C52.3718 59.3818 52.2595 59.1571 52.3085 58.9373C52.3565 58.7174 52.5514 58.56 52.777 58.56H55.128C61.4842 58.56 66.6557 53.4086 66.6557 47.0774C66.6557 44.136 65.5363 41.3299 63.505 39.1776C63.4003 39.0672 63.3542 38.9136 63.3811 38.7629C63.7008 36.983 63.7555 34.2269 62.9885 31.6877C59.4538 31.8432 56.4653 34.3037 55.321 35.3818C55.2317 35.4653 55.105 35.52 54.983 35.52H42.6902C42.5683 35.52 42.4512 35.4739 42.3619 35.3904L42.2736 35.3069C39.3187 32.497 36.6778 31.7683 34.8845 31.6877C34.249 33.7632 33.9811 36.2592 34.201 38.1475C34.2192 38.3011 34.1606 38.4538 34.0464 38.5584C31.6406 40.7424 30.2611 43.848 30.2611 47.0784C30.2611 53.4096 35.4326 58.56 41.7878 58.56H44.137C44.3626 58.56 44.5574 58.7174 44.6054 58.9382C44.6544 59.1581 44.5421 59.3827 44.3366 59.4768C42.4416 60.3446 41.0755 62.0458 40.7702 63.9168C40.7328 64.1491 40.5322 64.32 40.297 64.32C38.0573 64.32 35.3136 64.0598 33.9629 62.0352C31.7443 58.7069 30.8141 58.7069 29.736 58.7069C29.6016 58.7069 29.3664 58.729 29.3059 58.8778C29.2234 59.0755 29.3357 59.6035 29.9798 60.2486C31.2154 61.4842 31.2384 61.5302 32.4317 63.9158C33.4896 66.0336 36.2832 67.2 40.297 67.2C40.5619 67.2 40.777 67.415 40.777 67.68V73.44C40.777 73.705 40.5619 73.92 40.297 73.92C40.032 73.92 39.817 73.705 39.817 73.44V68.1552C34.2518 68.0294 32.2656 65.7312 31.5725 64.345C30.4262 62.0534 30.4262 62.0534 29.3011 60.9274C28.4669 60.0931 28.1366 59.1898 28.4189 58.5101C28.6195 58.0253 29.0995 57.7469 29.736 57.7469C31.2605 57.7469 32.4336 58.008 34.7616 61.5024C35.7878 63.0422 37.9862 63.3264 39.9034 63.3571C40.2509 61.8739 41.16 60.5107 42.4282 59.52H41.7869C34.9018 59.52 29.3002 53.9395 29.3002 47.0794C29.3002 43.6598 30.7258 40.3709 33.2208 38.015C33.0202 35.9002 33.3437 33.2573 34.081 31.0483C34.1472 30.8525 34.3306 30.72 34.537 30.72C36.4915 30.72 39.5213 31.3882 42.8813 34.56H54.7939C56.1638 33.3014 59.447 30.72 63.336 30.72C63.5424 30.72 63.7258 30.8525 63.792 31.0483C64.6896 33.7382 64.6829 36.7133 64.3661 38.6947C66.4637 41.0026 67.6157 43.9699 67.6157 47.0774C67.6157 53.9386 62.0141 59.52 55.128 59.52H54.4627C56.1014 60.8333 57.097 62.8243 57.097 64.9488V73.44C57.097 73.705 56.8819 73.92 56.617 73.92Z" fill="#1F212B"/>
<path d="M62.88 73.92H33.12C27.0326 73.92 22.08 68.9674 22.08 62.88V33.12C22.08 27.0326 27.0326 22.08 33.12 22.08H62.88C63.145 22.08 63.36 22.295 63.36 22.56C63.36 22.825 63.145 23.04 62.88 23.04H33.12C27.5616 23.04 23.04 27.5616 23.04 33.12V62.88C23.04 68.4384 27.5616 72.96 33.12 72.96H62.88C68.4384 72.96 72.96 68.4384 72.96 62.88V48.48C72.96 48.215 73.175 48 73.44 48C73.705 48 73.92 48.215 73.92 48.48V62.88C73.92 68.9674 68.9674 73.92 62.88 73.92Z" fill="#1F212B"/>
<path d="M73.44 46.56C73.175 46.56 72.96 46.345 72.96 46.08V39.84C72.96 39.575 73.175 39.36 73.44 39.36C73.705 39.36 73.92 39.575 73.92 39.84V46.08C73.92 46.345 73.705 46.56 73.44 46.56Z" fill="#1F212B"/>
<path d="M73.44 36.96C73.175 36.96 72.96 36.745 72.96 36.48V33.12C72.96 32.855 73.175 32.64 73.44 32.64C73.705 32.64 73.92 32.855 73.92 33.12V36.48C73.92 36.745 73.705 36.96 73.44 36.96Z" fill="#1F212B"/>
<path d="M68.16 79.68H27.84C21.4877 79.68 16.32 74.5123 16.32 68.16V27.84C16.32 21.4877 21.4877 16.32 27.84 16.32H68.16C74.5123 16.32 79.68 21.4877 79.68 27.84V68.16C79.68 74.5123 74.5123 79.68 68.16 79.68ZM27.84 18.24C22.5466 18.24 18.24 22.5466 18.24 27.84V68.16C18.24 73.4534 22.5466 77.76 27.84 77.76H68.16C73.4534 77.76 77.76 73.4534 77.76 68.16V27.84C77.76 22.5466 73.4534 18.24 68.16 18.24H27.84Z" fill="#1F212B"/>
</svg>
