<svg width="96" height="96" viewBox="0 0 96 96" fill="none" xmlns="http://www.w3.org/2000/svg">
<path d="M88.9241 75.2829V83.3666H81.8508H56.5891V75.2829H71.7258H88.9241Z" fill="#F4661E"/>
<path d="M35.3689 59.762C38.2994 61.298 41.7147 62.1466 45.4737 62.1466C49.2327 62.1466 52.648 61.2776 55.5785 59.762V66.1888C55.5785 66.1888 51.4154 71.2409 45.4737 71.2409C39.532 71.2409 35.3689 66.1888 35.3689 66.1888V59.762Z" fill="#FEDAAB"/>
<path d="M64.6728 72.2516C67.4011 73.1206 69.725 74.0703 71.7258 75.101V75.2829H56.5889V83.3666H81.8507V83.7304C83.8515 86.9638 83.8717 89.4294 83.8717 89.4294C83.8717 89.4294 83.8717 91.6524 83.8717 94.4816H7.07588C7.07588 91.6522 7.07588 89.4294 7.07588 89.4294C7.07588 89.4294 7.25776 78.3748 26.275 72.2514C26.275 72.2514 33.1666 68.6542 35.3693 66.1886C35.3693 66.1886 39.5324 71.2408 45.4741 71.2408C51.4158 71.2408 55.5789 66.1886 55.5789 66.1886C57.7812 68.6542 64.6728 72.2516 64.6728 72.2516Z" fill="#4CBD91"/>
<path d="M55.5785 59.762C52.648 61.2778 49.2327 62.1466 45.4737 62.1466C41.7147 62.1466 38.2994 61.2978 35.3689 59.762C28.8818 56.387 24.6177 49.7583 23.5262 41.8563C20.3938 41.432 17.1805 38.461 17.1805 35.8745C17.1805 33.0856 19.8885 31.8325 23.2433 31.8325V27.7906C23.2433 27.7906 31.327 27.7906 40.4213 18.6962C40.4213 18.6962 53.5574 26.7799 67.7041 26.7799V31.8321C71.0589 31.8321 73.767 33.085 73.767 35.8741C73.767 38.461 70.5538 41.4316 67.4212 41.8559C66.3301 49.7583 62.0656 56.387 55.5785 59.762Z" fill="#FEDAAB"/>
<path d="M40.4215 18.6964C31.3272 27.7907 23.2435 27.7907 23.2435 27.7907V26.7803C23.2435 26.7803 22.1925 1.51856 45.4739 1.51856C68.7148 1.51856 67.7043 26.7803 67.7043 26.7803C53.5576 26.7801 40.4215 18.6964 40.4215 18.6964Z" fill="#A67C52"/>
<path d="M90.4425 73.7643H72.4143L72.4213 73.7512C70.3149 72.6661 67.9713 71.715 65.261 70.8453C63.4571 69.8956 59.0133 67.3783 57.0969 65.5696V60.6586C63.2244 57.136 67.4178 50.8327 68.7605 43.1217C72.2493 42.1255 75.2853 38.8679 75.2853 35.8743C75.2853 32.8332 73.0006 30.8131 69.2225 30.3947V26.8081C69.2521 25.9495 69.5156 14.1233 62.0986 6.4037C58.0162 2.15457 52.4227 0 45.4739 0C38.5068 0 32.9031 2.15869 28.819 6.41608C21.4165 14.133 21.6938 25.9396 21.7251 26.8088V30.3947C17.9468 30.8131 15.6623 32.833 15.6623 35.8743C15.6623 38.8679 18.6987 42.1253 22.1871 43.1217C23.53 50.8342 27.7246 57.1385 33.8508 60.6588V65.5694C31.9351 67.3771 27.4874 69.8968 25.6844 70.8465C5.9852 77.2385 5.56576 88.9097 5.5577 89.4045L5.55751 96H85.3901V89.4169C85.3894 89.3214 85.3573 87.4672 84.1862 84.8846H90.4423V73.7643H90.4425V73.7643ZM36.8873 62.1138C39.5386 63.1426 42.4158 63.665 45.4737 63.665C48.5077 63.665 51.3845 63.14 54.0601 62.1056V65.6038C53.023 66.6881 49.7386 69.7226 45.4737 69.7226C41.2366 69.7226 37.9293 66.6821 36.8873 65.6006V62.1138ZM31.0232 8.5052C34.5117 4.87651 39.3734 3.03676 45.4739 3.03676C51.5568 3.03676 56.4093 4.87295 59.8961 8.49414C65.0911 13.8897 66.0106 21.9302 66.1627 25.2276C53.2135 24.6794 41.3399 17.4786 41.2175 17.4032L40.1961 16.7749L39.3481 17.6228C33.1249 23.8459 27.3936 25.5932 24.7577 26.0826C24.7887 23.6063 25.3054 14.4531 31.0232 8.5052ZM25.0304 41.6489L24.8727 40.5068L23.7302 40.352C21.5333 40.0542 18.6988 37.8295 18.6988 35.8744C18.6988 33.5329 22.1774 33.3509 23.2433 33.3509H24.7617V29.1687C27.5431 28.7532 33.781 27.1071 40.6548 20.5881C43.9355 22.4284 54.4962 27.8254 66.1865 28.2683L66.1856 33.3507H67.704C68.7701 33.3507 72.2484 33.5326 72.2484 35.8743C72.2484 37.8293 69.414 40.054 67.2172 40.3518L66.0746 40.5066L65.9169 41.6487C64.8746 49.1963 60.8508 55.3074 54.8806 58.4135C52.0392 59.8833 48.8744 60.6282 45.4735 60.6282C42.0353 60.6282 38.873 59.8842 36.0694 58.4148C30.0966 55.3074 26.0729 49.1965 25.0304 41.6489ZM82.3535 89.4487V92.9634H8.59427V89.4574C8.60402 89.2796 8.77708 86.8436 10.9348 83.7967C14.7342 78.432 21.6269 75.3431 26.7406 73.6965L26.8632 73.6569L26.9776 73.5971C27.6062 73.269 32.4903 70.6899 35.3178 68.3218C37.066 69.9674 40.7307 72.759 45.4739 72.759C50.2169 72.759 53.8818 69.9674 55.63 68.3218C58.4575 70.6897 63.3417 73.269 63.9703 73.5971L64.0869 73.658L64.2121 73.698C64.2807 73.7199 64.3462 73.7422 64.4142 73.7641H55.0707V84.8848H80.7703C82.2399 87.4149 82.3483 89.3257 82.3535 89.4487ZM87.4057 81.8484H58.1073V76.8013H87.4059V81.8484H87.4057Z" fill="#231F20"/>
</svg>
